<svg xmlns="http://www.w3.org/2000/svg" width="50.326" height="50.082" viewBox="0 0 50.326 50.082"><defs><style>.a{fill:none;stroke:#0b5aa8;stroke-width:3px;stroke-linecap:round;stroke-linejoin:round}.c{fill:#e2001a}.d{stroke:none}</style></defs><g transform="translate(-839 -888.241)"><g class="a" transform="translate(839 912.424)"><rect class="d" width="10.029" height="21.49" rx="4"/><rect x="1.5" y="1.5" width="7.029" height="18.49" rx="2.5" style="fill:none"/></g><path class="a" d="M848.998 930.457s8.248 4.179 9.518 4.859 5.079 2.481 9.117.7 18.685-8.466 18.685-8.466a2.409 2.409 0 0 0 1.152-3.507c-1.188-2.6-4.008-1.553-4.008-1.553l-11.171 3.106"/><g style="stroke-linecap:round;stroke-linejoin:round;fill:none"><path class="d" d="m870.178 913.379-10.055-8.97a3.5 3.5 0 0 1 2.33-6.112h.806v-8.056a2 2 0 0 1 2-2h14.719a2 2 0 0 1 2 2v8.056h.581a3.5 3.5 0 0 1 2.33 6.112l-10.054 8.97a3.5 3.5 0 0 1-4.66 0z"/><path d="M13.429 23.026a.494.494 0 0 0 .333-.127l10.053-8.97a.453.453 0 0 0 .135-.552c-.123-.321-.373-.321-.467-.321h-.58a3 3 0 0 1-3-3V3H7.18v7.056a3 3 0 0 1-3 3h-.806c-.094 0-.345 0-.467.321a.453.453 0 0 0 .134.552l10.054 8.97a.493.493 0 0 0 .333.127m0 3a3.491 3.491 0 0 1-2.33-.888l-10.054-8.97c-2.4-2.141-.886-6.112 2.33-6.112h.806V2a2 2 0 0 1 2-2H20.9a2 2 0 0 1 2.001 2v8.056h.58c3.216 0 4.73 3.97 2.33 6.112l-10.053 8.97a3.494 3.494 0 0 1-2.33.888z" style="fill:#e2001a;stroke:none" transform="translate(859.078 888.241)"/></g><circle class="c" cx="1.433" cy="1.433" r="1.433" transform="translate(868.37 896.665)"/><circle class="c" cx="1.433" cy="1.433" r="1.433" transform="translate(874.101 902.395)"/><rect class="c" width="1.627" height="11.503" rx=".814" transform="rotate(44.03 -670.765 1531.512)"/><path class="a" d="m856.963 924.546 1-.851a2.9 2.9 0 0 1 3.156 0c1.948.995 7.364 3.607 7.364 3.607a2.644 2.644 0 0 0 3.657-1.353c1.187-2.568-.9-3.557-.9-3.557l-13.277-7.063s-1.469-.993-4.158 0-4.809 2-4.809 2"/></g></svg>