<svg xmlns="http://www.w3.org/2000/svg" width="41.145" height="47.196" viewBox="0 0 41.145 47.196"><defs><style>.a,.b,.d{fill:none}.a,.b{stroke:#0b5aa8;stroke-linecap:round;stroke-linejoin:round;stroke-width:2.5px}.b{stroke:#e2001a}.c{stroke:none}</style></defs><path class="a" d="M1.703 13.966s4.026 9.439 0 31.966c.032.038 37.742 0 37.742 0s-3.389-19.009 0-31.966c.026.087-37.742 0-37.742 0zm5.319 0V1.301h12.513v4.61"/><path class="a" d="m17.458 13.966-2.482-4.863 13.678-7.851 7.7 12.716M7.022 8.241H4.894l-3.191 5.674m37.741.051-3.141-5.623h-3.291"/><path class="b" d="M12.544 21.97v4.154s.008 7.194 7.9 7.194 8.054-7.194 8.054-7.194V21.97"/><g class="b" transform="translate(10.027 17.79)"><circle class="c" cx="2.517" cy="2.517" r="2.517"/><circle class="d" cx="2.517" cy="2.517" r="1.267"/></g><g class="b" transform="translate(25.985 17.79)"><circle class="c" cx="2.517" cy="2.517" r="2.517"/><circle class="d" cx="2.517" cy="2.517" r="1.267"/></g></svg>