<svg xmlns="http://www.w3.org/2000/svg" width="119.965" height="136.49" viewBox="0 0 119.965 136.49"><path d="M454.486 1812.3 469 1790.529a4 4 0 0 0-3.326-6.218h-39.988a4 4 0 0 1-4-4 12.012 12.012 0 0 0-12-12h-28.672a12 12 0 0 0-23.305 4v116.5h-4a4 4 0 0 0 0 8H385.7a4 4 0 0 0 0-8h-4V1832.3h32.679a12.013 12.013 0 0 0 11.307 8h39.989a4 4 0 0 0 3.326-6.216zm-80.786 76.51h-8v-116.5a4 4 0 1 1 8 0zm39.99-64.51H381.7v-47.985h27.991a4 4 0 0 1 4 4zm12 8a4 4 0 0 1-4-4v-36.676a11.9 11.9 0 0 0 4 .689h32.51l-11.851 17.775a4 4 0 0 0 0 4.435L458.2 1832.3z" transform="translate(-349.712 -1760.319)" style="fill:#ffd122"/></svg>