<svg xmlns="http://www.w3.org/2000/svg" width="147.368" height="123.313" viewBox="0 0 147.368 123.313"><defs><style>.a{fill:#fff;stroke:#fff;stroke-width:3px}</style></defs><path class="a" d="M130.828 121.814H16.538A15.059 15.059 0 0 1 1.5 106.776V94.744a3.008 3.008 0 0 1 3.008-3.007h3.008a12.03 12.03 0 0 0 0-24.061H4.505a3.008 3.008 0 0 1-3.008-3.008v-12.03a15.059 15.059 0 0 1 15.038-15.04h114.29a15.059 15.059 0 0 1 15.039 15.04v12.03a3.008 3.008 0 0 1-3.008 3.008h-3.008a12.027 12.027 0 0 0-8.506 20.536 11.92 11.92 0 0 0 8.5 3.525h3.008a3.01 3.01 0 0 1 3.009 3.007v12.032a15.051 15.051 0 0 1-15.031 15.038zM7.515 97.752v9.024a9.035 9.035 0 0 0 9.023 9.023h114.29a9.035 9.035 0 0 0 9.024-9.023v-9.024h-.007a18.046 18.046 0 0 1 .007-36.091v-9.023a9.035 9.035 0 0 0-9.024-9.025H16.538a9.035 9.035 0 0 0-9.023 9.025v9.023a18.046 18.046 0 1 1 0 36.091z"/><path class="a" d="M52.631 49.631a3.01 3.01 0 0 1-3.008-3.009v-6.015a3.008 3.008 0 1 1 6.015 0v6.015a3.01 3.01 0 0 1-3.007 3.009zm0 50.895a3.009 3.009 0 0 1-3.008-3.008V87.347a3.008 3.008 0 1 1 6.015 0v10.177a3 3 0 0 1-3.007 3.002zm0-25.445a3.008 3.008 0 0 1-3.008-3.007V61.895a3.008 3.008 0 1 1 6.015 0v10.179a3.008 3.008 0 0 1-3.007 3.007zm0 46.732a3.008 3.008 0 0 1-3.008-3.007v-6.015a3.008 3.008 0 1 1 6.015 0v6.015a3.008 3.008 0 0 1-3.007 3.007z"/><path class="a" d="M16.537 43.611a3.007 3.007 0 0 1-1.052-5.822l95.643-35.713a9.185 9.185 0 0 1 11.7 5.552l10.846 32.008a3.01 3.01 0 0 1-5.7 1.931L117.128 9.559a3.076 3.076 0 0 0-3.9-1.853L17.585 43.42a2.916 2.916 0 0 1-1.048.191z"/></svg>