<svg xmlns="http://www.w3.org/2000/svg" width="35.381" height="43.131" viewBox="0 0 35.381 43.131"><defs><style>.a{fill:#0b5aa8}</style></defs><path class="a" d="M30.327 0H10.109a5.06 5.06 0 0 0-5.054 5.054H1.264A1.264 1.264 0 0 0 0 6.318v35.55a1.264 1.264 0 0 0 1.264 1.264h22.745a1.264 1.264 0 0 0 1.264-1.264v-3.791h3.791a1.264 1.264 0 0 0 1.264-1.264V7.582H33.9a1.264 1.264 0 0 0 1.191-.842A5.057 5.057 0 0 0 30.327 0zm-7.582 40.6H2.527V7.582h2.527v29.231a1.264 1.264 0 0 0 1.264 1.264h16.427zm5.055-5.05H7.582V5.054a2.527 2.527 0 1 1 4.911.842 1.264 1.264 0 0 0 1.191 1.685H27.8zM15.163 5.054a5.024 5.024 0 0 0-.678-2.527h15.842a2.53 2.53 0 0 1 2.527 2.527z"/><path d="M197.264 123.527h7.582a1.264 1.264 0 0 0 0-2.527h-7.582a1.264 1.264 0 0 0 0 2.527z" transform="translate(-180.837 -110.807)" style="fill:#e2001a"/><path class="a" d="M24.009 15.248H11.373a1.264 1.264 0 0 0 0 2.527h12.636a1.264 1.264 0 1 0 0-2.527zm-12.636 7.581H13.9a1.264 1.264 0 1 0 0-2.527h-2.527a1.264 1.264 0 1 0 0 2.527zm12.636 2.527H11.373a1.264 1.264 0 1 0 0 2.527h12.636a1.264 1.264 0 1 0 0-2.527zm-5.139 5.055h-7.5a1.264 1.264 0 1 0 0 2.527h7.5a1.264 1.264 0 0 0 0-2.527zm5.136-10.109h-5.139a1.264 1.264 0 1 0 0 2.527h5.139a1.264 1.264 0 0 0 0-2.527z"/></svg>