<svg xmlns="http://www.w3.org/2000/svg" width="35.381" height="43.131" viewBox="0 0 35.381 43.131"><defs><style>.a{fill:#0b5aa8;}.b{fill:#e2001a;}</style></defs><g transform="translate(97.417 170.632)"><g transform="translate(-113.417 -170.632)"><path class="a" d="M46.327,0H26.109a5.06,5.06,0,0,0-5.054,5.054H17.264A1.264,1.264,0,0,0,16,6.318v35.55a1.264,1.264,0,0,0,1.264,1.264H40.009a1.264,1.264,0,0,0,1.264-1.264V38.077h3.791a1.264,1.264,0,0,0,1.264-1.264V7.582H49.9a1.264,1.264,0,0,0,1.191-.842A5.057,5.057,0,0,0,46.327,0ZM38.745,40.6H18.527V7.582h2.527V36.813a1.264,1.264,0,0,0,1.264,1.264H38.745ZM43.8,35.55H23.582V5.054a2.527,2.527,0,1,1,4.911.842,1.264,1.264,0,0,0,1.191,1.685H43.8ZM31.163,5.054a5.024,5.024,0,0,0-.678-2.527H46.327a2.53,2.53,0,0,1,2.527,2.527Z"/><path class="b" d="M197.264,123.527h7.582a1.264,1.264,0,0,0,0-2.527h-7.582a1.264,1.264,0,0,0,0,2.527Z" transform="translate(-164.837 -110.807)"/><path class="a" d="M149.9,181H137.264a1.264,1.264,0,0,0,0,2.527H149.9a1.264,1.264,0,1,0,0-2.527Z" transform="translate(-109.891 -165.752)"/><path class="a" d="M137.264,243.527h2.527a1.264,1.264,0,1,0,0-2.527h-2.527a1.264,1.264,0,1,0,0,2.527Z" transform="translate(-109.891 -220.698)"/><path class="a" d="M149.9,301H137.264a1.264,1.264,0,1,0,0,2.527H149.9a1.264,1.264,0,1,0,0-2.527Z" transform="translate(-109.891 -275.644)"/><path class="a" d="M144.761,361h-7.5a1.264,1.264,0,1,0,0,2.527h7.5a1.264,1.264,0,0,0,0-2.527Z" transform="translate(-109.891 -330.589)"/><path class="a" d="M231.4,241h-5.139a1.264,1.264,0,1,0,0,2.527H231.4a1.264,1.264,0,0,0,0-2.527Z" transform="translate(-191.394 -220.698)"/></g></g></svg>