<svg xmlns="http://www.w3.org/2000/svg" width="41.145" height="47.196" viewBox="0 0 41.145 47.196"><defs><style>.a,.b,.d{fill:none;}.a{stroke:#0b5aa8;}.a,.b{stroke-linecap:round;stroke-linejoin:round;stroke-width:2.5px;}.b{stroke:#e2001a;}.c{stroke:none;}</style></defs><g transform="translate(162.986 -506.748)"><path class="a" d="M-507.5,633.5s4.026,9.439,0,31.966c.032.038,37.742,0,37.742,0s-3.389-19.009,0-31.966C-469.732,633.587-507.5,633.5-507.5,633.5Z" transform="translate(346.217 -112.786)"/><path class="a" d="M-455,521.165V508.5h12.513v4.61" transform="translate(299.036 -0.451)"/><path class="a" d="M-374.018,520.714l-2.482-4.863L-362.822,508l7.7,12.716" transform="translate(228.49 0)"/><path class="a" d="M-502.181,577h-2.128l-3.191,5.674" transform="translate(346.217 -62.011)"/><path class="a" d="M-192.068,583.623-195.209,578H-198.5" transform="translate(68.526 -62.909)"/><path class="b" d="M-400.5,712.5v4.154s.008,7.194,7.9,7.194,8.054-7.194,8.054-7.194V712.5" transform="translate(250.058 -183.782)"/><g class="b" transform="translate(-152.959 524.538)"><circle class="c" cx="2.517" cy="2.517" r="2.517"/><circle class="d" cx="2.517" cy="2.517" r="1.267"/></g><g class="b" transform="translate(-137.001 524.538)"><circle class="c" cx="2.517" cy="2.517" r="2.517"/><circle class="d" cx="2.517" cy="2.517" r="1.267"/></g></g></svg>