<svg xmlns="http://www.w3.org/2000/svg" width="147.368" height="123.313" viewBox="0 0 147.368 123.313"><defs><style>.a{fill:#fff;stroke:#fff;stroke-width:3px;}</style></defs><g transform="translate(1.5 1.535)"><path class="a" d="M799.023,1860H684.733a15.059,15.059,0,0,1-15.038-15.038V1832.93a3.008,3.008,0,0,1,3.008-3.007h3.008a12.03,12.03,0,0,0,0-24.061H672.7a3.008,3.008,0,0,1-3.008-3.008v-12.03a15.059,15.059,0,0,1,15.038-15.04h114.29a15.059,15.059,0,0,1,15.039,15.04v12.03a3.008,3.008,0,0,1-3.008,3.008h-3.008a12.027,12.027,0,0,0-8.506,20.536,11.92,11.92,0,0,0,8.5,3.525h3.008a3.01,3.01,0,0,1,3.009,3.007v12.032A15.051,15.051,0,0,1,799.023,1860ZM675.71,1835.938v9.024a9.035,9.035,0,0,0,9.023,9.023h114.29a9.035,9.035,0,0,0,9.024-9.023v-9.024h-.007a18.045,18.045,0,0,1,.007-36.091v-9.023a9.035,9.035,0,0,0-9.024-9.025H684.733a9.035,9.035,0,0,0-9.023,9.025v9.023a18.045,18.045,0,1,1,0,36.091Z" transform="translate(-669.695 -1739.721)"/><path class="a" d="M698.672,1787.817a3.01,3.01,0,0,1-3.008-3.009v-6.015a3.008,3.008,0,1,1,6.015,0v6.015A3.01,3.01,0,0,1,698.672,1787.817Z" transform="translate(-647.541 -1739.721)"/><path class="a" d="M698.672,1828.912a3.009,3.009,0,0,1-3.008-3.008v-10.171a3.008,3.008,0,1,1,6.015,0v10.177A3,3,0,0,1,698.672,1828.912Zm0-25.445a3.008,3.008,0,0,1-3.008-3.007v-10.179a3.008,3.008,0,1,1,6.015,0v10.179A3.008,3.008,0,0,1,698.672,1803.467Z" transform="translate(-647.541 -1729.921)"/><path class="a" d="M698.672,1826.769a3.008,3.008,0,0,1-3.008-3.007v-6.015a3.008,3.008,0,1,1,6.015,0v6.015A3.008,3.008,0,0,1,698.672,1826.769Z" transform="translate(-647.541 -1706.491)"/><path class="a" d="M679.194,1798.4a3.007,3.007,0,0,1-1.052-5.822l95.643-35.713a9.185,9.185,0,0,1,11.7,5.552l10.846,32.008a3.007,3.007,0,0,1-5.7,1.931l-10.846-32.008a3.076,3.076,0,0,0-3.9-1.853l-95.643,35.714A2.916,2.916,0,0,1,679.194,1798.4Z" transform="translate(-664.157 -1756.324)"/></g></svg>