<svg xmlns="http://www.w3.org/2000/svg" width="50.326" height="50.082" viewBox="0 0 50.326 50.082"><defs><style>.a,.b,.e{fill:none;}.a{stroke:#0b5aa8;stroke-width:3px;}.a,.b{stroke-linecap:round;stroke-linejoin:round;}.c{fill:#e2001a;}.d,.f{stroke:none;}.f{fill:#e2001a;}</style></defs><g transform="translate(-839 -888.241)"><g class="a" transform="translate(839 912.424)"><rect class="d" width="10.029" height="21.49" rx="4"/><rect class="e" x="1.5" y="1.5" width="7.029" height="18.49" rx="2.5"/></g><path class="a" d="M783.535,1007.095s8.248,4.179,9.518,4.859,5.079,2.481,9.117.7,18.685-8.466,18.685-8.466a2.409,2.409,0,0,0,1.152-3.507c-1.188-2.6-4.008-1.553-4.008-1.553l-11.171,3.106" transform="translate(65.463 -76.638)"/><g class="b" transform="translate(859.078 888.241)"><path class="d" d="M11.1,25.138,1.045,16.168a3.5,3.5,0,0,1,2.33-6.112h.806V2a2,2,0,0,1,2-2H20.9a2,2,0,0,1,2,2v8.056h.581a3.5,3.5,0,0,1,2.33,6.112l-10.054,8.97a3.5,3.5,0,0,1-4.66,0Z"/><path class="f" d="M 13.42856025695801 23.02620124816895 C 13.51567077636719 23.02620124816895 13.64432048797607 23.00407981872559 13.76175022125244 22.89937973022461 L 23.81507110595703 13.92959022521973 C 23.88549995422363 13.86673069000244 24.07257080078125 13.69973087310791 23.94960975646973 13.3773307800293 C 23.82693099975586 13.05570030212402 23.5769214630127 13.05570030212402 23.48280143737793 13.05570030212402 L 22.90229988098145 13.05570030212402 C 21.24545097351074 13.05570030212402 19.90229988098145 11.71255016326904 19.90229988098145 10.05570030212402 L 19.90229988098145 3.000000715255737 L 7.180500507354736 3.000000715255737 L 7.180500507354736 10.05570030212402 C 7.180500507354736 11.71255016326904 5.837350368499756 13.05570030212402 4.180500507354736 13.05570030212402 L 3.375000476837158 13.05570030212402 C 3.280690670013428 13.05570030212402 3.030160665512085 13.05570030212402 2.907500505447388 13.37739086151123 C 2.784730672836304 13.69936084747314 2.971860647201538 13.86636066436768 3.042150497436523 13.92908096313477 L 13.09603023529053 22.89936065673828 C 13.21353054046631 23.00419044494629 13.34172058105469 23.02620124816895 13.42856025695801 23.02620124816895 M 13.42856025695801 26.02620124816895 C 12.59550094604492 26.02620124816895 11.76255035400391 25.73010063171387 11.09880065917969 25.13790130615234 L 1.04490053653717 16.16760063171387 C -1.354499459266663 14.0265007019043 0.1593005806207657 10.05570030212402 3.375000476837158 10.05570030212402 L 4.180500507354736 10.05570030212402 L 4.180500507354736 1.999800682067871 C 4.180500507354736 0.8955006003379822 5.076000690460205 6.240844641069998e-07 6.180300712585449 6.240844641069998e-07 L 20.9015998840332 6.240844641069998e-07 C 22.00679969787598 6.240844641069998e-07 22.90229988098145 0.8955006003379822 22.90229988098145 1.999800682067871 L 22.90229988098145 10.05570030212402 L 23.48280143737793 10.05570030212402 C 26.69760131835938 10.05570030212402 28.21140098571777 14.0265007019043 25.81290054321289 16.16760063171387 L 15.75900077819824 25.13790130615234 C 15.09480094909668 25.73010063171387 14.26162052154541 26.02620124816895 13.42856025695801 26.02620124816895 Z"/></g><circle class="c" cx="1.433" cy="1.433" r="1.433" transform="translate(868.37 896.665)"/><circle class="c" cx="1.433" cy="1.433" r="1.433" transform="translate(874.101 902.395)"/><rect class="c" width="1.627" height="11.503" rx="0.814" transform="matrix(0.719, 0.695, -0.695, 0.719, 875.916, 896.537)"/><path class="a" d="M791.5,975.792l1-.851a2.9,2.9,0,0,1,3.156,0c1.948.995,7.364,3.607,7.364,3.607a2.644,2.644,0,0,0,3.657-1.353c1.187-2.568-.9-3.557-.9-3.557L792.5,966.575s-1.469-.993-4.158,0-4.809,2-4.809,2" transform="translate(65.463 -51.246)"/></g></svg>